<svg width="512" height="512" viewBox="0 0 512 512" fill="none" xmlns="http://www.w3.org/2000/svg">
<rect width="512" height="512" fill="url(#paint0_linear_120_12)"/>
<rect width="512" height="512" fill="url(#paint1_linear_120_12)" fill-opacity="0.6"/>
<path fill-rule="evenodd" clip-rule="evenodd" d="M459.786 247H450.786V267.571H428.928V276.571H450.786V298.429H459.786V276.571H480.357V267.571H459.786V247Z" fill="white"/>
<path d="M164.604 247.019V298.794H155.925V289.4C153.831 293.173 151.156 296.05 147.902 298.03C144.648 300.01 141.003 301 136.968 301C129.468 301 123.425 298.444 118.837 293.332C114.25 288.22 111.956 281.459 111.956 273.048C111.956 264.522 114.184 257.741 118.638 252.705C123.092 247.669 129.05 245.151 136.511 245.151C140.888 245.151 144.686 246.122 147.904 248.065C151.122 250.007 153.72 252.902 155.698 256.75V247.019H164.604ZM155.925 273.387C155.925 267.54 154.314 262.834 151.094 259.269C147.873 255.703 143.676 253.921 138.502 253.922C133.135 253.922 128.947 255.563 125.939 258.845C122.931 262.128 121.431 266.711 121.439 272.594C121.439 278.857 122.952 283.686 125.979 287.081C129.006 290.475 133.297 292.173 138.852 292.175C144.182 292.175 148.361 290.525 151.387 287.224C154.413 283.924 155.926 279.311 155.927 273.387H155.925Z" fill="white"/>
<path d="M169.136 300.852V213.147H178.102V272.56L203.284 249.077H215.218L189.122 272.786L217.56 300.852H205.054L178.102 273.522V300.852H169.136Z" fill="white"/>
<path d="M261.511 246.945V298.72H252.83V289.326C250.736 293.099 248.062 295.976 244.808 297.956C241.553 299.936 237.908 300.926 233.872 300.926C226.372 300.926 220.328 298.37 215.742 293.259C211.156 288.148 208.862 281.386 208.86 272.974C208.86 264.448 211.087 257.668 215.542 252.632C219.996 247.597 225.954 245.078 233.416 245.078C237.793 245.078 241.59 246.049 244.808 247.992C248.025 249.934 250.623 252.83 252.602 256.677V246.945H261.511ZM252.83 273.314C252.83 267.467 251.222 262.761 248.005 259.196C244.787 255.631 240.59 253.848 235.413 253.848C230.046 253.848 225.859 255.489 222.85 258.771C219.842 262.054 218.338 266.637 218.34 272.521C218.34 278.783 219.853 283.612 222.88 287.007C225.906 290.401 230.198 292.099 235.757 292.1C241.085 292.1 245.263 290.449 248.29 287.148C251.317 283.847 252.83 279.236 252.83 273.314Z" fill="white"/>
<path d="M265.553 298.701V246.926H274.29V254.905C276.537 251.585 279.24 249.114 282.399 247.492C285.558 245.87 289.213 245.059 293.364 245.059C299.531 245.059 304.346 246.681 307.811 249.925C311.275 253.17 313.006 257.678 313.003 263.451V298.701H303.866V268.202C303.866 262.959 302.753 259.064 300.526 256.517C298.3 253.97 294.864 252.697 290.219 252.698C287.554 252.698 285.127 253.179 282.938 254.141C280.815 255.056 278.945 256.465 277.488 258.248C276.38 259.614 275.572 261.195 275.118 262.888C274.642 264.623 274.404 267.641 274.405 271.942V298.701H265.553Z" fill="white"/>
<path d="M368.86 211V298.706H360.181V289.313C358.125 293.047 355.46 295.914 352.187 297.914C348.913 299.914 345.259 300.915 341.222 300.917C333.723 300.917 327.68 298.361 323.093 293.249C318.506 288.137 316.212 281.375 316.211 272.964C316.211 264.476 318.457 257.705 322.95 252.651C327.443 247.597 333.42 245.069 340.881 245.067C345.222 245.067 348.991 246.039 352.187 247.981C355.383 249.924 357.97 252.818 359.949 256.664V211H368.86ZM360.181 273.073C360.181 267.302 358.563 262.653 355.327 259.127C352.091 255.601 347.827 253.837 342.536 253.834C337.244 253.834 333.113 255.438 330.143 258.644C327.174 261.851 325.689 266.283 325.69 271.941C325.69 278.317 327.196 283.306 330.206 286.908C333.217 290.51 337.366 292.311 342.655 292.311C348.137 292.311 352.429 290.614 355.532 287.219C358.634 283.824 360.184 279.109 360.181 273.073Z" fill="white"/>
<path d="M425.072 246.904V298.679H416.392V289.288C414.298 293.061 411.624 295.937 408.37 297.917C405.115 299.898 401.47 300.888 397.433 300.888C389.934 300.888 383.891 298.332 379.304 293.221C374.717 288.109 372.424 281.348 372.423 272.935C372.423 264.41 374.65 257.629 379.103 252.594C383.557 247.558 389.515 245.04 396.976 245.039C401.354 245.039 405.152 246.011 408.37 247.953C411.587 249.896 414.185 252.791 416.163 256.639V246.904H425.072ZM416.392 273.276C416.392 267.428 414.784 262.722 411.566 259.157C408.349 255.593 404.152 253.81 398.975 253.809C393.608 253.809 389.42 255.451 386.413 258.733C383.406 262.015 381.901 266.599 381.897 272.483C381.898 278.742 383.413 283.572 386.441 286.971C389.47 290.371 393.762 292.069 399.319 292.065C404.647 292.065 408.825 290.414 411.852 287.113C414.879 283.812 416.392 279.199 416.392 273.276Z" fill="white"/>
<path d="M118.7 222.681L99.5297 272.305L78.3883 222.681L78.3295 222.704L78.3201 222.681H63.5662L75.5065 251.854L67.6065 272.305L46.4641 222.681L46.4053 222.704L46.3969 222.681H31.6431L63.4234 300.332L68.265 287.806L78.926 260.21L95.3466 300.332L100.188 287.806L125.347 222.681H118.7Z" fill="white"/>
<defs>
<linearGradient id="paint0_linear_120_12" x1="256" y1="0" x2="256" y2="512" gradientUnits="userSpaceOnUse">
<stop stop-color="#74EBD5"/>
<stop offset="1" stop-color="#ACB6E5"/>
</linearGradient>
<linearGradient id="paint1_linear_120_12" x1="256" y1="0" x2="256" y2="512" gradientUnits="userSpaceOnUse">
<stop stop-color="#36D1DC"/>
<stop offset="1" stop-color="#5B86E5"/>
</linearGradient>
</defs>
</svg>
